<svg width="101" height="25" viewBox="0 0 101 25" fill="none" xmlns="http://www.w3.org/2000/svg">
<path d="M50.6 13.7999C48.6 13.7999 46.9 15.2999 46.9 17.4999C46.9 19.5999 48.6 21.1999 50.6 21.1999C52.6 21.1999 54.3 19.5999 54.3 17.4999C54.3 15.3999 52.6 13.7999 50.6 13.7999ZM50.6 19.6999C49.5 19.6999 48.5 18.7999 48.5 17.4999C48.5 16.1999 49.5 15.2999 50.6 15.2999C51.7 15.2999 52.7 16.1999 52.7 17.4999C52.7 18.7999 51.7 19.6999 50.6 19.6999ZM42.5 13.7999C40.5 13.7999 38.8 15.2999 38.8 17.4999C38.8 19.5999 40.5 21.1999 42.5 21.1999C44.5 21.1999 46.2 19.5999 46.2 17.4999C46.2 15.3999 44.5 13.7999 42.5 13.7999ZM42.5 19.6999C41.4 19.6999 40.4 18.7999 40.4 17.4999C40.4 16.1999 41.4 15.2999 42.5 15.2999C43.6 15.2999 44.6 16.1999 44.6 17.4999C44.6 18.7999 43.6 19.6999 42.5 19.6999ZM32.9 14.9999V16.5999H36.7C36.6 17.4999 36.3 18.0999 35.8 18.5999C35.3 19.0999 34.4 19.6999 32.9 19.6999C30.6 19.6999 28.8 17.8999 28.8 15.5999C28.8 13.2999 30.6 11.4999 32.9 11.4999C34.2 11.4999 35.1 11.9999 35.7 12.5999L36.8 11.4999C35.9 10.5999 34.6 9.8999 32.9 9.8999C29.7 9.8999 27.1 12.3999 27.1 15.5999C27.1 18.7999 29.8 21.2999 32.9 21.2999C34.6 21.2999 35.9 20.6999 36.9 19.6999C37.9 18.6999 38.3 17.1999 38.3 16.0999C38.3 15.6999 38.3 15.3999 38.2 15.0999H32.9V14.9999ZM72.3 16.1999C72 15.3999 71.1 13.8999 69.1 13.8999C67.2 13.8999 65.6 15.3999 65.6 17.5999C65.6 19.5999 67.2 21.2999 69.3 21.2999C71 21.2999 72 20.2999 72.4 19.6999L71.1 18.8999C70.7 19.4999 70.1 19.8999 69.3 19.8999C68.5 19.8999 67.9 19.4999 67.5 18.7999L72.5 16.7999L72.3 16.1999ZM67.2 17.3999C67.2 15.9999 68.3 15.2999 69.1 15.2999C69.7 15.2999 70.3 15.5999 70.5 16.0999L67.2 17.3999ZM63.2 20.8999H64.8V10.1999H63.2V20.8999ZM60.5 14.6999C60.1 14.2999 59.4 13.8999 58.5 13.8999C56.6 13.8999 55 15.4999 55 17.5999C55 19.6999 56.7 21.1999 58.5 21.1999C59.4 21.1999 60.1 20.7999 60.4 20.3999H60.5V20.8999C60.5 22.2999 59.7 23.0999 58.5 23.0999C57.5 23.0999 56.9 22.3999 56.6 21.7999L55.2 22.3999C55.6 23.3999 56.7 24.5999 58.5 24.5999C60.4 24.5999 62 23.4999 62 20.7999V14.0999H60.5V14.6999ZM58.7 19.6999C57.6 19.6999 56.6 18.7999 56.6 17.4999C56.6 16.1999 57.5 15.2999 58.7 15.2999C59.8 15.2999 60.7 16.1999 60.7 17.4999C60.7 18.7999 59.8 19.6999 58.7 19.6999ZM79.9 10.1999H76V20.9999H77.6V16.8999H79.9C81.7 16.8999 83.5 15.5999 83.5 13.5999C83.5 11.4999 81.7 10.1999 79.9 10.1999ZM80 15.3999H77.7V11.6999H80C81.2 11.6999 81.9 12.6999 81.9 13.4999C81.9 14.3999 81.2 15.3999 80 15.3999ZM90 13.7999C88.8 13.7999 87.6 14.2999 87.1 15.3999L88.5 15.9999C88.8 15.3999 89.4 15.1999 90 15.1999C90.8 15.1999 91.7 15.6999 91.7 16.5999V16.6999C91.4 16.4999 90.8 16.2999 90 16.2999C88.4 16.2999 86.9 17.0999 86.9 18.6999C86.9 20.0999 88.2 21.0999 89.6 21.0999C90.7 21.0999 91.3 20.5999 91.7 19.9999H91.8V20.7999H93.4V16.6999C93.3 14.8999 91.9 13.7999 90 13.7999ZM89.8 19.6999C89.3 19.6999 88.5 19.3999 88.5 18.7999C88.5 17.9999 89.4 17.5999 90.2 17.5999C90.9 17.5999 91.2 17.7999 91.7 17.9999C91.6 18.9999 90.7 19.6999 89.8 19.6999ZM99 14.0999L97.1 18.7999H97L95.1 14.0999H93.3L96.2 20.5999L94.5 24.1999H96.2L100.7 14.0999H99ZM84.4 20.8999H86V10.1999H84.4V20.8999Z" fill="#17181D"/>
<path d="M0.4 1.6001C0.0999996 1.9001 0 2.3001 0 2.8001V21.8001C0 22.3001 0.0999996 22.7001 0.4 23.0001L0.5 23.1001L11.3 12.4001V12.1001L0.4 1.6001Z" fill="url(#paint0_linear_1438_12275)"/>
<path d="M14.7997 16.0002L11.1997 12.4002V12.1002L14.7997 8.50024H14.8997L19.1997 10.9002C20.3997 11.6002 20.3997 12.7002 19.1997 13.4002L14.7997 16.0002Z" fill="url(#paint1_linear_1438_12275)"/>
<path d="M14.9 15.9999L11.2 12.3999L0.400024 23.0999C0.800024 23.4999 1.50002 23.5999 2.20002 23.1999L14.9 15.9999Z" fill="url(#paint2_linear_1438_12275)"/>
<path d="M14.8999 8.70031L2.1999 1.60031C1.4999 1.20031 0.799902 1.20031 0.399902 1.70031L11.2999 12.4003L14.8999 8.70031Z" fill="url(#paint3_linear_1438_12275)"/>
<path d="M32.4001 3.1C32.4001 4.8 31.2001 5.9 29.4001 5.9H27.6001V0.3H29.4001C31.2001 0.3 32.4001 1.4 32.4001 3.1ZM29.4001 5.2C30.7001 5.2 31.4001 4.4 31.4001 3.2C31.4001 1.9 30.7001 1.1 29.4001 1.1H28.5001V5.2H29.4001ZM35.2001 6C33.9001 6 33.0001 5.1 33.0001 3.7C33.0001 2.3 34.0001 1.4 35.2001 1.4C36.5001 1.4 37.4001 2.3 37.4001 3.7C37.5001 5.1 36.5001 6 35.2001 6ZM35.2001 5.2C35.9001 5.2 36.6001 4.7 36.6001 3.7C36.6001 2.7 36.0001 2.2 35.3001 2.2C34.6001 2.2 34.0001 2.7 34.0001 3.7C33.9001 4.7 34.5001 5.2 35.2001 5.2ZM37.9001 1.5H38.8001L39.7001 5L40.6001 1.5H41.6001L42.5001 5L43.4001 1.5H44.3001L42.9001 5.9H41.9001L41.0001 2.6L40.1001 5.9H39.1001L37.9001 1.5ZM48.1001 3.4C48.1001 2.6 47.7001 2.2 47.0001 2.2C46.3001 2.2 45.9001 2.6 45.9001 3.4V5.9H45.0001V1.5H45.9001V2C46.2001 1.6 46.7001 1.4 47.2001 1.4C48.2001 1.4 49.0001 2 49.0001 3.3V5.9H48.1001V3.4ZM50.2001 0H51.1001V5.9H50.2001V0ZM54.2001 6C53.0001 6 52.0001 5.1 52.0001 3.7C52.0001 2.3 53.0001 1.4 54.2001 1.4C55.5001 1.4 56.4001 2.3 56.4001 3.7C56.5001 5.1 55.5001 6 54.2001 6ZM54.2001 5.2C54.9001 5.2 55.6001 4.7 55.6001 3.7C55.6001 2.7 55.0001 2.2 54.3001 2.2C53.6001 2.2 53.0001 2.7 53.0001 3.7C52.9001 4.7 53.5001 5.2 54.2001 5.2ZM59.2001 1.4C59.9001 1.4 60.5001 1.8 60.7001 2.1V1.5H61.6001V5.9H60.7001V5.2C60.4001 5.6 59.9001 5.9 59.2001 5.9C58.1001 5.9 57.1001 5 57.1001 3.6C57.1001 2.2 58.0001 1.4 59.2001 1.4ZM59.4001 2.2C58.7001 2.2 58.1001 2.7 58.1001 3.7C58.1001 4.7 58.8001 5.2 59.4001 5.2C60.1001 5.2 60.7001 4.7 60.7001 3.7C60.7001 2.7 60.1001 2.2 59.4001 2.2ZM64.6001 1.4C65.2001 1.4 65.8001 1.7 66.1001 2.1V0H67.0001V5.9H66.1001V5.2C65.8001 5.6 65.3001 5.9 64.6001 5.9C63.4001 5.9 62.5001 5 62.5001 3.6C62.5001 2.2 63.4001 1.4 64.6001 1.4ZM64.8001 2.2C64.1001 2.2 63.5001 2.7 63.5001 3.7C63.5001 4.7 64.2001 5.2 64.8001 5.2C65.5001 5.2 66.1001 4.7 66.1001 3.7C66.1001 2.7 65.5001 2.2 64.8001 2.2ZM72.2001 6C71.0001 6 70.0001 5.1 70.0001 3.7C70.0001 2.3 71.0001 1.4 72.2001 1.4C73.5001 1.4 74.4001 2.3 74.4001 3.7C74.5001 5.1 73.5001 6 72.2001 6ZM72.2001 5.2C72.9001 5.2 73.6001 4.7 73.6001 3.7C73.6001 2.7 73.0001 2.2 72.3001 2.2C71.6001 2.2 71.0001 2.7 71.0001 3.7C71.0001 4.7 71.5001 5.2 72.2001 5.2ZM78.6001 3.4C78.6001 2.6 78.2001 2.2 77.5001 2.2C76.8001 2.2 76.4001 2.6 76.4001 3.4V5.9H75.5001V1.5H76.4001V2C76.7001 1.6 77.2001 1.4 77.7001 1.4C78.7001 1.4 79.5001 2 79.5001 3.3V5.9H78.6001V3.4ZM82.8001 2.2H82.3001V1.5H82.8001V0.4H83.7001V1.5H84.8001V2.2H83.7001V4.6C83.7001 4.9 83.8001 5.1 84.2001 5.1H84.8001V5.9H84.1001C83.3001 5.9 82.8001 5.6 82.8001 4.7V2.2ZM85.7001 0H86.6001V2C86.9001 1.6 87.4001 1.4 88.0001 1.4C89.0001 1.4 89.8001 2 89.8001 3.3V5.9H88.9001V3.4C88.9001 2.6 88.5001 2.2 87.8001 2.2C87.1001 2.2 86.7001 2.6 86.7001 3.4V5.9H85.8001V0H85.7001ZM92.8001 6C91.5001 6 90.6001 5.1 90.6001 3.7C90.6001 2.3 91.5001 1.4 92.8001 1.4C94.1001 1.4 94.9001 2.3 94.9001 3.6V4H91.5001C91.6001 4.7 92.1001 5.2 92.8001 5.2C93.4001 5.2 93.7001 4.9 93.8001 4.6H94.8001C94.5001 5.4 93.8001 6 92.8001 6ZM91.5001 3.3H93.9001C93.9001 2.6 93.3001 2.2 92.7001 2.2C92.1001 2.2 91.6001 2.6 91.5001 3.3Z" fill="#17181D"/>
<defs>
<linearGradient id="paint0_linear_1438_12275" x1="10.2669" y1="22.0502" x2="-4.17059" y2="7.44318" gradientUnits="userSpaceOnUse">
<stop stop-color="#00A0FF"/>
<stop offset="0.007" stop-color="#00A1FF"/>
<stop offset="0.26" stop-color="#00BEFF"/>
<stop offset="0.512" stop-color="#00D2FF"/>
<stop offset="0.76" stop-color="#00DFFF"/>
<stop offset="1" stop-color="#00E3FF"/>
</linearGradient>
<linearGradient id="paint1_linear_1438_12275" x1="20.7427" y1="12.3365" x2="-0.319755" y2="12.3365" gradientUnits="userSpaceOnUse">
<stop stop-color="#FFE000"/>
<stop offset="0.409" stop-color="#FFBD00"/>
<stop offset="0.775" stop-color="#FFA500"/>
<stop offset="1" stop-color="#FF9C00"/>
</linearGradient>
<linearGradient id="paint2_linear_1438_12275" x1="5.63883" y1="17.5403" x2="-13.939" y2="-2.26877" gradientUnits="userSpaceOnUse">
<stop stop-color="#FF3A44"/>
<stop offset="1" stop-color="#C31162"/>
</linearGradient>
<linearGradient id="paint3_linear_1438_12275" x1="-9.61682" y1="22.2128" x2="-0.875485" y2="13.3683" gradientUnits="userSpaceOnUse">
<stop stop-color="#32A071"/>
<stop offset="0.069" stop-color="#2DA771"/>
<stop offset="0.476" stop-color="#15CF74"/>
<stop offset="0.801" stop-color="#06E775"/>
<stop offset="1" stop-color="#00F076"/>
</linearGradient>
</defs>
</svg>
