<svg width="100" height="26" viewBox="0 0 100 26" fill="none" xmlns="http://www.w3.org/2000/svg">
<path d="M14.8037 11.9005C14.8037 10.2005 15.7037 8.60051 17.2037 7.70051C16.3037 6.40051 14.8037 5.60051 13.2037 5.50051C11.5037 5.30051 9.90374 6.50051 9.00374 6.50051C8.10374 6.50051 6.80374 5.50051 5.40374 5.50051C3.50374 5.60051 1.80374 6.60051 0.903743 8.20051C-0.996257 11.5005 0.403743 16.5005 2.30374 19.2005C3.20374 20.5005 4.30374 22.0005 5.70374 22.0005C7.10374 21.9005 7.60374 21.1005 9.30374 21.1005C11.0037 21.1005 11.4037 22.0005 12.9037 22.0005C14.4037 22.0005 15.3037 20.7005 16.2037 19.3005C16.9037 18.4005 17.4037 17.3005 17.7037 16.2005C15.9037 15.6005 14.8037 13.8005 14.8037 11.9005Z" fill="white"/>
<path d="M12.0037 3.79993C12.8037 2.79993 13.2037 1.59993 13.1037 0.299927C11.9037 0.399927 10.7037 0.999927 9.90368 1.99993C9.10368 2.89993 8.70368 4.09993 8.80368 5.39993C10.1037 5.39993 11.2037 4.79993 12.0037 3.79993Z" fill="white"/>
<path d="M32.3034 18.7H27.6034L26.5034 22.1H24.5034L29.0034 9.7H31.0034L35.5034 22.1H33.5034L32.3034 18.7ZM28.1034 17.2H31.9034L30.0034 11.7H29.9034L28.1034 17.2ZM45.2034 17.6C45.2034 20.4 43.7034 22.2 41.4034 22.2C40.2034 22.3 39.1034 21.6 38.6034 20.6V25.1H36.7034V13.1H38.5034V14.6C39.1034 13.6 40.2034 13 41.4034 13C43.6034 12.9 45.2034 14.8 45.2034 17.6ZM43.2034 17.6C43.2034 15.8 42.3034 14.6 40.8034 14.6C39.4034 14.6 38.4034 15.8 38.4034 17.6C38.4034 19.4 39.4034 20.6 40.8034 20.6C42.3034 20.6 43.2034 19.4 43.2034 17.6ZM55.1034 17.6C55.1034 20.4 53.6034 22.2 51.3034 22.2C50.1034 22.3 49.0034 21.6 48.5034 20.6V25.1H46.6034V13.1H48.4034V14.6C49.0034 13.6 50.1034 13 51.3034 13C53.6034 12.9 55.1034 14.8 55.1034 17.6ZM53.2034 17.6C53.2034 15.8 52.3034 14.6 50.8034 14.6C49.4034 14.6 48.4034 15.8 48.4034 17.6C48.4034 19.4 49.4034 20.6 50.8034 20.6C52.3034 20.6 53.2034 19.4 53.2034 17.6ZM61.7034 18.6C61.8034 19.8 63.0034 20.6 64.7034 20.6C66.3034 20.6 67.4034 19.8 67.4034 18.7C67.4034 17.7 66.7034 17.2 65.1034 16.8L63.5034 16.4C61.2034 15.8 60.2034 14.8 60.2034 13.1C60.2034 11 62.1034 9.5 64.7034 9.5C67.3034 9.5 69.1034 11 69.2034 13.1H67.3034C67.2034 11.9 66.2034 11.1 64.7034 11.1C63.2034 11.1 62.2034 11.9 62.2034 13C62.2034 13.9 62.9034 14.4 64.5034 14.8L65.9034 15.1C68.4034 15.7 69.5034 16.7 69.5034 18.5C69.5034 20.8 67.6034 22.3 64.7034 22.3C61.9034 22.3 60.1034 20.9 60.0034 18.6H61.7034ZM73.3034 10.9V13H75.0034V14.5H73.3034V19.5C73.3034 20.3 73.6034 20.6 74.4034 20.6H75.0034V22.1C74.7034 22.2 74.3034 22.2 74.0034 22.2C72.2034 22.2 71.5034 21.5 71.5034 19.8V14.6H70.2034V13.1H71.5034V11H73.3034V10.9ZM76.1034 17.6C76.1034 14.8 77.8034 13 80.4034 13C83.0034 13 84.7034 14.8 84.7034 17.6C84.7034 20.5 83.0034 22.2 80.4034 22.2C77.7034 22.2 76.1034 20.4 76.1034 17.6ZM82.8034 17.6C82.8034 15.6 81.9034 14.5 80.4034 14.5C78.9034 14.5 78.0034 15.6 78.0034 17.6C78.0034 19.6 78.9034 20.7 80.4034 20.7C81.9034 20.7 82.8034 19.5 82.8034 17.6ZM86.2034 13H88.0034V14.6C88.2034 13.6 89.2034 12.9 90.2034 13C90.4034 13 90.6034 13 90.8034 13.1V14.8C90.5034 14.7 90.2034 14.7 90.0034 14.7C89.0034 14.7 88.1034 15.5 88.1034 16.5V22.2H86.2034V13ZM99.4034 19.4C99.2034 21 97.5034 22.2 95.5034 22.2C92.9034 22.2 91.2034 20.4 91.2034 17.6C91.2034 14.8 92.8034 12.9 95.4034 12.9C97.9034 12.9 99.5034 14.6 99.5034 17.4V18H93.1034V18.1C93.0034 19.4 93.9034 20.5 95.2034 20.7H95.5034C96.4034 20.8 97.3034 20.3 97.6034 19.4H99.4034ZM93.1034 16.7H97.6034C97.7034 15.5 96.7034 14.5 95.5034 14.4H95.3034C94.1034 14.4 93.1034 15.4 93.1034 16.7Z" fill="white"/>
<path d="M27.8038 0.3C29.3038 0.2 30.5038 1.3 30.6038 2.7V3.2C30.6038 5.1 29.6038 6.2 27.8038 6.2H25.6038V0.200001H27.8038V0.3ZM26.6038 5.5H27.7038C28.7038 5.6 29.6038 4.8 29.7038 3.7V3.3C29.8038 2.3 29.1038 1.3 28.1038 1.2H26.6038V5.5ZM31.7038 4C31.6038 2.8 32.4038 1.8 33.6038 1.7C34.8038 1.6 35.8038 2.4 35.9038 3.6V4C36.0038 5.2 35.2038 6.2 34.0038 6.3C32.8038 6.4 31.8038 5.6 31.7038 4.4V4ZM35.0038 4C35.0038 3 34.6038 2.5 33.8038 2.5C33.0038 2.5 32.6038 3.1 32.6038 4C32.6038 5 33.0038 5.6 33.8038 5.6C34.6038 5.6 35.0038 5 35.0038 4ZM41.6038 6.3H40.7038L39.8038 3H39.7038L38.8038 6.3H37.9038L36.7038 1.8H37.6038L38.4038 5.2H38.5038L39.4038 1.8H40.3038L41.2038 5.2H41.3038L42.1038 1.8H43.0038L41.6038 6.3ZM43.9038 1.8H44.8038V2.5H44.9038C45.1038 2 45.7038 1.7 46.2038 1.7C47.0038 1.6 47.7038 2.2 47.8038 3.1V6.3H46.9038V3.6C46.9038 2.9 46.6038 2.5 45.9038 2.5C45.3038 2.5 44.8038 2.9 44.8038 3.5V6.3H43.9038V1.8ZM49.1038 0H50.0038V6.3H49.1038V0ZM51.2038 4C51.1038 2.8 51.9038 1.8 53.1038 1.7C54.3038 1.6 55.3038 2.4 55.4038 3.6V4C55.5038 5.2 54.7038 6.2 53.5038 6.3C52.3038 6.4 51.3038 5.6 51.2038 4.4V4ZM54.6038 4C54.6038 3 54.2038 2.5 53.4038 2.5C52.6038 2.5 52.2038 3.1 52.2038 4C52.2038 5 52.6038 5.6 53.4038 5.6C54.1038 5.6 54.6038 5 54.6038 4ZM56.4038 5C56.4038 4.2 57.0038 3.7 58.1038 3.7L59.3038 3.6V3.2C59.3038 2.7 59.0038 2.5 58.4038 2.5C57.9038 2.5 57.6038 2.7 57.5038 3H56.6038C56.7038 2.2 57.4038 1.7 58.4038 1.7C59.5038 1.7 60.2038 2.3 60.2038 3.2V6.3H59.3038V5.7H59.2038C58.9038 6.2 58.4038 6.4 57.8038 6.4C57.1038 6.5 56.4038 5.9 56.3038 5.2C56.4038 5.1 56.4038 5.1 56.4038 5ZM59.3038 4.6V4.2L58.2038 4.3C57.6038 4.3 57.3038 4.6 57.3038 4.9C57.3038 5.3 57.7038 5.5 58.1038 5.5C58.7038 5.7 59.2038 5.3 59.3038 4.6C59.3038 4.7 59.3038 4.7 59.3038 4.6ZM61.3038 4C61.3038 2.6 62.0038 1.7 63.2038 1.7C63.8038 1.7 64.3038 2 64.6038 2.5H64.7038V0H65.6038V6.3H64.7038V5.6H64.6038C64.3038 6.1 63.8038 6.4 63.2038 6.4C62.1038 6.4 61.3038 5.5 61.3038 4ZM62.3038 4C62.3038 5 62.8038 5.5 63.5038 5.5C64.2038 5.5 64.7038 4.9 64.7038 4C64.7038 3.1 64.2038 2.5 63.5038 2.5C62.7038 2.5 62.3038 3.1 62.3038 4ZM69.2038 4C69.1038 2.8 69.9038 1.8 71.1038 1.7C72.3038 1.6 73.3038 2.4 73.4038 3.6V4C73.5038 5.2 72.7038 6.2 71.5038 6.3C70.3038 6.4 69.3038 5.6 69.2038 4.4V4ZM72.6038 4C72.6038 3 72.2038 2.5 71.4038 2.5C70.6038 2.5 70.2038 3.1 70.2038 4C70.2038 5 70.6038 5.6 71.4038 5.6C72.1038 5.6 72.6038 5 72.6038 4ZM74.7038 1.8H75.6038V2.5H75.7038C75.9038 2 76.5038 1.7 77.0038 1.7C77.8038 1.6 78.5038 2.2 78.6038 3.1V6.3H77.7038V3.6C77.7038 2.9 77.4038 2.5 76.7038 2.5C76.1038 2.5 75.6038 2.9 75.6038 3.5V6.3H74.7038V1.8ZM83.5038 0.700001V1.8H84.5038V2.6H83.5038V4.9C83.5038 5.4 83.7038 5.6 84.1038 5.6H84.4038V6.3H83.9038C82.9038 6.3 82.5038 6 82.5038 5.1V2.6H81.8038V1.9H82.5038V0.700001H83.5038ZM85.7038 0H86.6038V2.5H86.7038C86.9038 2 87.5038 1.6 88.1038 1.7C88.9038 1.7 89.6038 2.3 89.7038 3.1V6.3H88.8038V3.6C88.8038 2.9 88.5038 2.5 87.8038 2.5C87.2038 2.5 86.7038 2.9 86.7038 3.5V6.3H85.8038L85.7038 0ZM94.8038 5.1C94.6038 5.9 93.7038 6.5 92.8038 6.4C91.7038 6.4 90.7038 5.5 90.7038 4.4V4.1C90.5038 3 91.3038 1.9 92.5038 1.8H92.8038C94.1038 1.8 94.8038 2.7 94.8038 4.1V4.4H91.6038C91.5038 5.1 92.0038 5.6 92.7038 5.7H92.8038C93.2038 5.8 93.7038 5.5 93.9038 5.2L94.8038 5.1ZM91.6038 3.6H93.9038C93.9038 3 93.5038 2.5 92.9038 2.4H92.8038C92.2038 2.5 91.6038 3 91.6038 3.6Z" fill="white"/>
</svg>
