<svg width="101" height="25" viewBox="0 0 101 25" fill="none" xmlns="http://www.w3.org/2000/svg">
<path d="M50.6001 13.8C48.6001 13.8 46.9001 15.3 46.9001 17.5C46.9001 19.6 48.6001 21.2 50.6001 21.2C52.6001 21.2 54.3001 19.6 54.3001 17.5C54.3001 15.4 52.6001 13.8 50.6001 13.8ZM50.6001 19.7C49.5001 19.7 48.5001 18.8 48.5001 17.5C48.5001 16.2 49.5001 15.3 50.6001 15.3C51.7001 15.3 52.7001 16.2 52.7001 17.5C52.7001 18.8 51.7001 19.7 50.6001 19.7ZM42.5001 13.8C40.5001 13.8 38.8001 15.3 38.8001 17.5C38.8001 19.6 40.5001 21.2 42.5001 21.2C44.5001 21.2 46.2001 19.6 46.2001 17.5C46.2001 15.4 44.5001 13.8 42.5001 13.8ZM42.5001 19.7C41.4001 19.7 40.4001 18.8 40.4001 17.5C40.4001 16.2 41.4001 15.3 42.5001 15.3C43.6001 15.3 44.6001 16.2 44.6001 17.5C44.6001 18.8 43.6001 19.7 42.5001 19.7ZM32.9001 15V16.6H36.7001C36.6001 17.5 36.3001 18.1 35.8001 18.6C35.3001 19.1 34.4001 19.7 32.9001 19.7C30.6001 19.7 28.8001 17.9 28.8001 15.6C28.8001 13.3 30.6001 11.5 32.9001 11.5C34.2001 11.5 35.1001 12 35.7001 12.6L36.8001 11.5C35.9001 10.6 34.6001 9.90002 32.9001 9.90002C29.7001 9.90002 27.1001 12.4 27.1001 15.6C27.1001 18.8 29.8001 21.3 32.9001 21.3C34.6001 21.3 35.9001 20.7 36.9001 19.7C37.9001 18.7 38.3001 17.2 38.3001 16.1C38.3001 15.7 38.3001 15.4 38.2001 15.1H32.9001V15ZM72.3001 16.2C72.0001 15.4 71.1001 13.9 69.1001 13.9C67.2001 13.9 65.6001 15.4 65.6001 17.6C65.6001 19.6 67.2001 21.3 69.3001 21.3C71.0001 21.3 72.0001 20.3 72.4001 19.7L71.1001 18.9C70.7001 19.5 70.1001 19.9 69.3001 19.9C68.5001 19.9 67.9001 19.5 67.5001 18.8L72.5001 16.8L72.3001 16.2ZM67.2001 17.4C67.2001 16 68.3001 15.3 69.1001 15.3C69.7001 15.3 70.3001 15.6 70.5001 16.1L67.2001 17.4ZM63.2001 20.9H64.8001V10.2H63.2001V20.9ZM60.5001 14.7C60.1001 14.3 59.4001 13.9 58.5001 13.9C56.6001 13.9 55.0001 15.5 55.0001 17.6C55.0001 19.7 56.7001 21.2 58.5001 21.2C59.4001 21.2 60.1001 20.8 60.4001 20.4H60.5001V20.9C60.5001 22.3 59.7001 23.1 58.5001 23.1C57.5001 23.1 56.9001 22.4 56.6001 21.8L55.2001 22.4C55.6001 23.4 56.7001 24.6 58.5001 24.6C60.4001 24.6 62.0001 23.5 62.0001 20.8V14.1H60.5001V14.7ZM58.7001 19.7C57.6001 19.7 56.6001 18.8 56.6001 17.5C56.6001 16.2 57.5001 15.3 58.7001 15.3C59.8001 15.3 60.7001 16.2 60.7001 17.5C60.7001 18.8 59.8001 19.7 58.7001 19.7ZM79.9001 10.2H76.0001V21H77.6001V16.9H79.9001C81.7001 16.9 83.5001 15.6 83.5001 13.6C83.5001 11.5 81.7001 10.2 79.9001 10.2ZM80.0001 15.4H77.7001V11.7H80.0001C81.2001 11.7 81.9001 12.7 81.9001 13.5C81.9001 14.4 81.2001 15.4 80.0001 15.4ZM90.0001 13.8C88.8001 13.8 87.6001 14.3 87.1001 15.4L88.5001 16C88.8001 15.4 89.4001 15.2 90.0001 15.2C90.8001 15.2 91.7001 15.7 91.7001 16.6V16.7C91.4001 16.5 90.8001 16.3 90.0001 16.3C88.4001 16.3 86.9001 17.1 86.9001 18.7C86.9001 20.1 88.2001 21.1 89.6001 21.1C90.7001 21.1 91.3001 20.6 91.7001 20H91.8001V20.8H93.4001V16.7C93.3001 14.9 91.9001 13.8 90.0001 13.8ZM89.8001 19.7C89.3001 19.7 88.5001 19.4 88.5001 18.8C88.5001 18 89.4001 17.6 90.2001 17.6C90.9001 17.6 91.2001 17.8 91.7001 18C91.6001 19 90.7001 19.7 89.8001 19.7ZM99.0001 14.1L97.1001 18.8H97.0001L95.1001 14.1H93.3001L96.2001 20.6L94.5001 24.2H96.2001L100.7 14.1H99.0001ZM84.4001 20.9H86.0001V10.2H84.4001V20.9Z" fill="white"/>
<path d="M0.4 1.6001C0.0999996 1.9001 0 2.3001 0 2.8001V21.8001C0 22.3001 0.0999996 22.7001 0.4 23.0001L0.5 23.1001L11.3 12.4001V12.1001L0.4 1.6001Z" fill="url(#paint0_linear_1437_12034)"/>
<path d="M14.7997 16.0002L11.1997 12.4002V12.1002L14.7997 8.50024H14.8997L19.1997 10.9002C20.3997 11.6002 20.3997 12.7002 19.1997 13.4002L14.7997 16.0002Z" fill="url(#paint1_linear_1437_12034)"/>
<path d="M14.8999 16L11.1999 12.4L0.399902 23.1C0.799902 23.5 1.4999 23.6 2.1999 23.2L14.8999 16Z" fill="url(#paint2_linear_1437_12034)"/>
<path d="M14.8999 8.70031L2.1999 1.60031C1.4999 1.20031 0.799902 1.20031 0.399902 1.70031L11.2999 12.4003L14.8999 8.70031Z" fill="url(#paint3_linear_1437_12034)"/>
<path d="M32.4001 3.1C32.4001 4.8 31.2001 5.9 29.4001 5.9H27.6001V0.3H29.4001C31.2001 0.3 32.4001 1.4 32.4001 3.1ZM29.4001 5.2C30.7001 5.2 31.4001 4.4 31.4001 3.2C31.4001 1.9 30.7001 1.1 29.4001 1.1H28.5001V5.2H29.4001ZM35.2001 6C33.9001 6 33.0001 5.1 33.0001 3.7C33.0001 2.3 34.0001 1.4 35.2001 1.4C36.5001 1.4 37.4001 2.3 37.4001 3.7C37.5001 5.1 36.5001 6 35.2001 6ZM35.2001 5.2C35.9001 5.2 36.6001 4.7 36.6001 3.7C36.6001 2.7 36.0001 2.2 35.3001 2.2C34.6001 2.2 34.0001 2.7 34.0001 3.7C33.9001 4.7 34.5001 5.2 35.2001 5.2ZM37.9001 1.5H38.8001L39.7001 5L40.6001 1.5H41.6001L42.5001 5L43.4001 1.5H44.3001L42.9001 5.9H41.9001L41.0001 2.6L40.1001 5.9H39.1001L37.9001 1.5ZM48.1001 3.4C48.1001 2.6 47.7001 2.2 47.0001 2.2C46.3001 2.2 45.9001 2.6 45.9001 3.4V5.9H45.0001V1.5H45.9001V2C46.2001 1.6 46.7001 1.4 47.2001 1.4C48.2001 1.4 49.0001 2 49.0001 3.3V5.9H48.1001V3.4ZM50.2001 0H51.1001V5.9H50.2001V0ZM54.2001 6C53.0001 6 52.0001 5.1 52.0001 3.7C52.0001 2.3 53.0001 1.4 54.2001 1.4C55.5001 1.4 56.4001 2.3 56.4001 3.7C56.5001 5.1 55.5001 6 54.2001 6ZM54.2001 5.2C54.9001 5.2 55.6001 4.7 55.6001 3.7C55.6001 2.7 55.0001 2.2 54.3001 2.2C53.6001 2.2 53.0001 2.7 53.0001 3.7C52.9001 4.7 53.5001 5.2 54.2001 5.2ZM59.2001 1.4C59.9001 1.4 60.5001 1.8 60.7001 2.1V1.5H61.6001V5.9H60.7001V5.2C60.4001 5.6 59.9001 5.9 59.2001 5.9C58.1001 5.9 57.1001 5 57.1001 3.6C57.1001 2.2 58.0001 1.4 59.2001 1.4ZM59.4001 2.2C58.7001 2.2 58.1001 2.7 58.1001 3.7C58.1001 4.7 58.8001 5.2 59.4001 5.2C60.1001 5.2 60.7001 4.7 60.7001 3.7C60.7001 2.7 60.1001 2.2 59.4001 2.2ZM64.6001 1.4C65.2001 1.4 65.8001 1.7 66.1001 2.1V0H67.0001V5.9H66.1001V5.2C65.8001 5.6 65.3001 5.9 64.6001 5.9C63.4001 5.9 62.5001 5 62.5001 3.6C62.5001 2.2 63.4001 1.4 64.6001 1.4ZM64.8001 2.2C64.1001 2.2 63.5001 2.7 63.5001 3.7C63.5001 4.7 64.2001 5.2 64.8001 5.2C65.5001 5.2 66.1001 4.7 66.1001 3.7C66.1001 2.7 65.5001 2.2 64.8001 2.2ZM72.2001 6C71.0001 6 70.0001 5.1 70.0001 3.7C70.0001 2.3 71.0001 1.4 72.2001 1.4C73.5001 1.4 74.4001 2.3 74.4001 3.7C74.5001 5.1 73.5001 6 72.2001 6ZM72.2001 5.2C72.9001 5.2 73.6001 4.7 73.6001 3.7C73.6001 2.7 73.0001 2.2 72.3001 2.2C71.6001 2.2 71.0001 2.7 71.0001 3.7C71.0001 4.7 71.5001 5.2 72.2001 5.2ZM78.6001 3.4C78.6001 2.6 78.2001 2.2 77.5001 2.2C76.8001 2.2 76.4001 2.6 76.4001 3.4V5.9H75.5001V1.5H76.4001V2C76.7001 1.6 77.2001 1.4 77.7001 1.4C78.7001 1.4 79.5001 2 79.5001 3.3V5.9H78.6001V3.4ZM82.8001 2.2H82.3001V1.5H82.8001V0.4H83.7001V1.5H84.8001V2.2H83.7001V4.6C83.7001 4.9 83.8001 5.1 84.2001 5.1H84.8001V5.9H84.1001C83.3001 5.9 82.8001 5.6 82.8001 4.7V2.2ZM85.7001 0H86.6001V2C86.9001 1.6 87.4001 1.4 88.0001 1.4C89.0001 1.4 89.8001 2 89.8001 3.3V5.9H88.9001V3.4C88.9001 2.6 88.5001 2.2 87.8001 2.2C87.1001 2.2 86.7001 2.6 86.7001 3.4V5.9H85.8001V0H85.7001ZM92.8001 6C91.5001 6 90.6001 5.1 90.6001 3.7C90.6001 2.3 91.5001 1.4 92.8001 1.4C94.1001 1.4 94.9001 2.3 94.9001 3.6V4H91.5001C91.6001 4.7 92.1001 5.2 92.8001 5.2C93.4001 5.2 93.7001 4.9 93.8001 4.6H94.8001C94.5001 5.4 93.8001 6 92.8001 6ZM91.5001 3.3H93.9001C93.9001 2.6 93.3001 2.2 92.7001 2.2C92.1001 2.2 91.6001 2.6 91.5001 3.3Z" fill="white"/>
<defs>
<linearGradient id="paint0_linear_1437_12034" x1="10.2669" y1="22.0502" x2="-4.17059" y2="7.44318" gradientUnits="userSpaceOnUse">
<stop stop-color="#00A0FF"/>
<stop offset="0.007" stop-color="#00A1FF"/>
<stop offset="0.26" stop-color="#00BEFF"/>
<stop offset="0.512" stop-color="#00D2FF"/>
<stop offset="0.76" stop-color="#00DFFF"/>
<stop offset="1" stop-color="#00E3FF"/>
</linearGradient>
<linearGradient id="paint1_linear_1437_12034" x1="20.7427" y1="12.3365" x2="-0.319755" y2="12.3365" gradientUnits="userSpaceOnUse">
<stop stop-color="#FFE000"/>
<stop offset="0.409" stop-color="#FFBD00"/>
<stop offset="0.775" stop-color="#FFA500"/>
<stop offset="1" stop-color="#FF9C00"/>
</linearGradient>
<linearGradient id="paint2_linear_1437_12034" x1="5.63871" y1="17.5404" x2="-13.9391" y2="-2.26864" gradientUnits="userSpaceOnUse">
<stop stop-color="#FF3A44"/>
<stop offset="1" stop-color="#C31162"/>
</linearGradient>
<linearGradient id="paint3_linear_1437_12034" x1="-9.61682" y1="22.2128" x2="-0.875485" y2="13.3683" gradientUnits="userSpaceOnUse">
<stop stop-color="#32A071"/>
<stop offset="0.069" stop-color="#2DA771"/>
<stop offset="0.476" stop-color="#15CF74"/>
<stop offset="0.801" stop-color="#06E775"/>
<stop offset="1" stop-color="#00F076"/>
</linearGradient>
</defs>
</svg>
