<svg width="100" height="26" viewBox="0 0 100 26" fill="none" xmlns="http://www.w3.org/2000/svg">
<path d="M14.8037 11.9005C14.8037 10.2005 15.7037 8.60051 17.2037 7.70051C16.3037 6.40051 14.8037 5.60051 13.2037 5.50051C11.5037 5.30051 9.90374 6.50051 9.00374 6.50051C8.10374 6.50051 6.80374 5.50051 5.40374 5.50051C3.50374 5.60051 1.80374 6.60051 0.903743 8.20051C-0.996257 11.5005 0.403743 16.5005 2.30374 19.2005C3.20374 20.5005 4.30374 22.0005 5.70374 22.0005C7.10374 21.9005 7.60374 21.1005 9.30374 21.1005C11.0037 21.1005 11.4037 22.0005 12.9037 22.0005C14.4037 22.0005 15.3037 20.7005 16.2037 19.3005C16.9037 18.4005 17.4037 17.3005 17.7037 16.2005C15.9037 15.6005 14.8037 13.8005 14.8037 11.9005Z" fill="#17181D"/>
<path d="M12.0037 3.80005C12.8037 2.80005 13.2037 1.60005 13.1037 0.300049C11.9037 0.400049 10.7037 1.00005 9.90368 2.00005C9.10368 2.90005 8.70368 4.10005 8.80368 5.40005C10.1037 5.40005 11.2037 4.80005 12.0037 3.80005Z" fill="#17181D"/>
<path d="M32.3035 18.7002H27.6035L26.5035 22.1002H24.5035L29.0035 9.70024H31.0035L35.5035 22.1002H33.5035L32.3035 18.7002ZM28.1035 17.2002H31.9035L30.0035 11.7002H29.9035L28.1035 17.2002ZM45.2035 17.6002C45.2035 20.4002 43.7035 22.2002 41.4035 22.2002C40.2035 22.3002 39.1035 21.6002 38.6035 20.6002V25.1002H36.7035V13.1002H38.5035V14.6002C39.1035 13.6002 40.2035 13.0002 41.4035 13.0002C43.6035 12.9002 45.2035 14.8002 45.2035 17.6002ZM43.2035 17.6002C43.2035 15.8002 42.3035 14.6002 40.8035 14.6002C39.4035 14.6002 38.4035 15.8002 38.4035 17.6002C38.4035 19.4002 39.4035 20.6002 40.8035 20.6002C42.3035 20.6002 43.2035 19.4002 43.2035 17.6002ZM55.1035 17.6002C55.1035 20.4002 53.6035 22.2002 51.3035 22.2002C50.1035 22.3002 49.0035 21.6002 48.5035 20.6002V25.1002H46.6035V13.1002H48.4035V14.6002C49.0035 13.6002 50.1035 13.0002 51.3035 13.0002C53.6035 12.9002 55.1035 14.8002 55.1035 17.6002ZM53.2035 17.6002C53.2035 15.8002 52.3035 14.6002 50.8035 14.6002C49.4035 14.6002 48.4035 15.8002 48.4035 17.6002C48.4035 19.4002 49.4035 20.6002 50.8035 20.6002C52.3035 20.6002 53.2035 19.4002 53.2035 17.6002ZM61.7035 18.6002C61.8035 19.8002 63.0035 20.6002 64.7035 20.6002C66.3035 20.6002 67.4035 19.8002 67.4035 18.7002C67.4035 17.7002 66.7035 17.2002 65.1035 16.8002L63.5035 16.4002C61.2035 15.8002 60.2035 14.8002 60.2035 13.1002C60.2035 11.0002 62.1035 9.50024 64.7035 9.50024C67.3035 9.50024 69.1035 11.0002 69.2035 13.1002H67.3035C67.2035 11.9002 66.2035 11.1002 64.7035 11.1002C63.2035 11.1002 62.2035 11.9002 62.2035 13.0002C62.2035 13.9002 62.9035 14.4002 64.5035 14.8002L65.9035 15.1002C68.4035 15.7002 69.5035 16.7002 69.5035 18.5002C69.5035 20.8002 67.6035 22.3002 64.7035 22.3002C61.9035 22.3002 60.1035 20.9002 60.0035 18.6002H61.7035ZM73.3035 10.9002V13.0002H75.0035V14.5002H73.3035V19.5002C73.3035 20.3002 73.6035 20.6002 74.4035 20.6002H75.0035V22.1002C74.7035 22.2002 74.3035 22.2002 74.0035 22.2002C72.2035 22.2002 71.5035 21.5002 71.5035 19.8002V14.6002H70.2035V13.1002H71.5035V11.0002H73.3035V10.9002ZM76.1035 17.6002C76.1035 14.8002 77.8035 13.0002 80.4035 13.0002C83.0035 13.0002 84.7035 14.8002 84.7035 17.6002C84.7035 20.5002 83.0035 22.2002 80.4035 22.2002C77.7035 22.2002 76.1035 20.4002 76.1035 17.6002ZM82.8035 17.6002C82.8035 15.6002 81.9035 14.5002 80.4035 14.5002C78.9035 14.5002 78.0035 15.6002 78.0035 17.6002C78.0035 19.6002 78.9035 20.7002 80.4035 20.7002C81.9035 20.7002 82.8035 19.5002 82.8035 17.6002ZM86.2035 13.0002H88.0035V14.6002C88.2035 13.6002 89.2035 12.9002 90.2035 13.0002C90.4035 13.0002 90.6035 13.0002 90.8035 13.1002V14.8002C90.5035 14.7002 90.2035 14.7002 90.0035 14.7002C89.0035 14.7002 88.1035 15.5002 88.1035 16.5002V22.2002H86.2035V13.0002ZM99.4035 19.4002C99.2035 21.0002 97.5035 22.2002 95.5035 22.2002C92.9035 22.2002 91.2035 20.4002 91.2035 17.6002C91.2035 14.8002 92.8035 12.9002 95.4035 12.9002C97.9035 12.9002 99.5035 14.6002 99.5035 17.4002V18.0002H93.1035V18.1002C93.0035 19.4002 93.9035 20.5002 95.2035 20.7002H95.5035C96.4035 20.8002 97.3035 20.3002 97.6035 19.4002H99.4035ZM93.1035 16.7002H97.6035C97.7035 15.5002 96.7035 14.5002 95.5035 14.4002H95.3035C94.1035 14.4002 93.1035 15.4002 93.1035 16.7002Z" fill="#17181D"/>
<path d="M27.8038 0.3C29.3038 0.2 30.5038 1.3 30.6038 2.7V3.2C30.6038 5.1 29.6038 6.2 27.8038 6.2H25.6038V0.200001H27.8038V0.3ZM26.6038 5.5H27.7038C28.7038 5.6 29.6038 4.8 29.7038 3.7V3.3C29.8038 2.3 29.1038 1.3 28.1038 1.2H26.6038V5.5ZM31.7038 4C31.6038 2.8 32.4038 1.8 33.6038 1.7C34.8038 1.6 35.8038 2.4 35.9038 3.6V4C36.0038 5.2 35.2038 6.2 34.0038 6.3C32.8038 6.4 31.8038 5.6 31.7038 4.4V4ZM35.0038 4C35.0038 3 34.6038 2.5 33.8038 2.5C33.0038 2.5 32.6038 3.1 32.6038 4C32.6038 5 33.0038 5.6 33.8038 5.6C34.6038 5.6 35.0038 5 35.0038 4ZM41.6038 6.3H40.7038L39.8038 3H39.7038L38.8038 6.3H37.9038L36.7038 1.8H37.6038L38.4038 5.2H38.5038L39.4038 1.8H40.3038L41.2038 5.2H41.3038L42.1038 1.8H43.0038L41.6038 6.3ZM43.9038 1.8H44.8038V2.5H44.9038C45.1038 2 45.7038 1.7 46.2038 1.7C47.0038 1.6 47.7038 2.2 47.8038 3.1V6.3H46.9038V3.6C46.9038 2.9 46.6038 2.5 45.9038 2.5C45.3038 2.5 44.8038 2.9 44.8038 3.5V6.3H43.9038V1.8ZM49.1038 0H50.0038V6.3H49.1038V0ZM51.2038 4C51.1038 2.8 51.9038 1.8 53.1038 1.7C54.3038 1.6 55.3038 2.4 55.4038 3.6V4C55.5038 5.2 54.7038 6.2 53.5038 6.3C52.3038 6.4 51.3038 5.6 51.2038 4.4V4ZM54.6038 4C54.6038 3 54.2038 2.5 53.4038 2.5C52.6038 2.5 52.2038 3.1 52.2038 4C52.2038 5 52.6038 5.6 53.4038 5.6C54.1038 5.6 54.6038 5 54.6038 4ZM56.4038 5C56.4038 4.2 57.0038 3.7 58.1038 3.7L59.3038 3.6V3.2C59.3038 2.7 59.0038 2.5 58.4038 2.5C57.9038 2.5 57.6038 2.7 57.5038 3H56.6038C56.7038 2.2 57.4038 1.7 58.4038 1.7C59.5038 1.7 60.2038 2.3 60.2038 3.2V6.3H59.3038V5.7H59.2038C58.9038 6.2 58.4038 6.4 57.8038 6.4C57.1038 6.5 56.4038 5.9 56.3038 5.2C56.4038 5.1 56.4038 5.1 56.4038 5ZM59.3038 4.6V4.2L58.2038 4.3C57.6038 4.3 57.3038 4.6 57.3038 4.9C57.3038 5.3 57.7038 5.5 58.1038 5.5C58.7038 5.7 59.2038 5.3 59.3038 4.6C59.3038 4.7 59.3038 4.7 59.3038 4.6ZM61.3038 4C61.3038 2.6 62.0038 1.7 63.2038 1.7C63.8038 1.7 64.3038 2 64.6038 2.5H64.7038V0H65.6038V6.3H64.7038V5.6H64.6038C64.3038 6.1 63.8038 6.4 63.2038 6.4C62.1038 6.4 61.3038 5.5 61.3038 4ZM62.3038 4C62.3038 5 62.8038 5.5 63.5038 5.5C64.2038 5.5 64.7038 4.9 64.7038 4C64.7038 3.1 64.2038 2.5 63.5038 2.5C62.7038 2.5 62.3038 3.1 62.3038 4ZM69.2038 4C69.1038 2.8 69.9038 1.8 71.1038 1.7C72.3038 1.6 73.3038 2.4 73.4038 3.6V4C73.5038 5.2 72.7038 6.2 71.5038 6.3C70.3038 6.4 69.3038 5.6 69.2038 4.4V4ZM72.6038 4C72.6038 3 72.2038 2.5 71.4038 2.5C70.6038 2.5 70.2038 3.1 70.2038 4C70.2038 5 70.6038 5.6 71.4038 5.6C72.1038 5.6 72.6038 5 72.6038 4ZM74.7038 1.8H75.6038V2.5H75.7038C75.9038 2 76.5038 1.7 77.0038 1.7C77.8038 1.6 78.5038 2.2 78.6038 3.1V6.3H77.7038V3.6C77.7038 2.9 77.4038 2.5 76.7038 2.5C76.1038 2.5 75.6038 2.9 75.6038 3.5V6.3H74.7038V1.8ZM83.5038 0.700001V1.8H84.5038V2.6H83.5038V4.9C83.5038 5.4 83.7038 5.6 84.1038 5.6H84.4038V6.3H83.9038C82.9038 6.3 82.5038 6 82.5038 5.1V2.6H81.8038V1.9H82.5038V0.700001H83.5038ZM85.7038 0H86.6038V2.5H86.7038C86.9038 2 87.5038 1.6 88.1038 1.7C88.9038 1.7 89.6038 2.3 89.7038 3.1V6.3H88.8038V3.6C88.8038 2.9 88.5038 2.5 87.8038 2.5C87.2038 2.5 86.7038 2.9 86.7038 3.5V6.3H85.8038L85.7038 0ZM94.8038 5.1C94.6038 5.9 93.7038 6.5 92.8038 6.4C91.7038 6.4 90.7038 5.5 90.7038 4.4V4.1C90.5038 3 91.3038 1.9 92.5038 1.8H92.8038C94.1038 1.8 94.8038 2.7 94.8038 4.1V4.4H91.6038C91.5038 5.1 92.0038 5.6 92.7038 5.7H92.8038C93.2038 5.8 93.7038 5.5 93.9038 5.2L94.8038 5.1ZM91.6038 3.6H93.9038C93.9038 3 93.5038 2.5 92.9038 2.4H92.8038C92.2038 2.5 91.6038 3 91.6038 3.6Z" fill="#17181D"/>
</svg>
